<svg viewBox="0 0 359 96" fill="none" xmlns="http://www.w3.org/2000/svg">
<g clip-path="url(#clip0_81_104)">
<path d="M86.8347 56.2941L19.392 15.333L20.0946 24.8116L5.71973 40.7588L66.1101 83.0374L73.4865 68.481L80.863 65.7729L86.8347 56.2941Z" fill="var(--color-brand-monochrome-world)"/>
<path d="M92.2816 29.2559L0 47.6942L2.70422 53.84L3.3372 65.7482L96 47.6942L89.5776 42.7004L92.2816 29.2559Z" fill="var(--color-brand-monochrome-family)"/>
<path d="M7.80029 76.9435L49.6816 4.5L52.451 9.48233L60.8277 10.9319L69.9468 15.6712L27.7277 91.4999L18.6084 85.0679L15.2309 78.6363L7.80029 76.9435Z" fill="var(--color-brand-monochrome-everyday)"/>
<path d="M358.4 22.9607H317.494V44.4229H354.031V51.4802H317.494V73.0391H358.4V80H310.047V16H358.4V22.9607Z" fill="var(--color-brand-monochrome-everyday)"/>
<path fill-rule="evenodd" clip-rule="evenodd" d="M272.998 16H284.79H292.236H304.028V23.5294H292.236V72.4704H304.028V80H292.236H284.79H272.998V72.4704H284.79V23.5294H272.998V16Z" fill="var(--color-brand-monochrome-everyday)"/>
<path d="M225.608 57.1845V80H218.162V16H247.749C261.748 16 270.387 24.0242 270.387 36.5921C270.387 49.2567 261.748 57.1845 247.749 57.1845H225.608ZM247.253 22.864H225.608V50.4169H247.253C257.578 50.4169 262.94 45.1964 262.94 36.5921C262.94 28.0846 257.578 22.864 247.253 22.864Z" fill="var(--color-brand-monochrome-everyday)"/>
<path d="M185.387 16L213.286 80H205.045L197.003 61.4382H164.437L156.395 80H148.154L176.054 16H185.387ZM167.317 54.7675H194.124L180.72 23.5408L167.317 54.7675Z" fill="var(--color-brand-monochrome-everyday)"/>
<path d="M155.716 16V22.9607H132.782V80H125.335V22.9607H102.4V16H155.716Z" fill="var(--color-brand-monochrome-everyday)"/>
</g>
<defs>
<clipPath id="clip0_81_104">
<rect width="358.4" height="96" fill="white"/>
</clipPath>
</defs>
</svg>
