<svg viewBox="0 0 24 24" fill="none" xmlns="http://www.w3.org/2000/svg">
<path d="M12.5017 21C11.1877 21 9.95267 20.7507 8.7965 20.252C7.64033 19.7533 6.63467 19.0766 5.7795 18.2218C4.92433 17.3669 4.24725 16.3617 3.74825 15.206C3.24942 14.0503 3 12.8156 3 11.5017C3 10.1877 3.24933 8.95267 3.748 7.7965C4.24667 6.64033 4.92342 5.63467 5.77825 4.7795C6.63308 3.92433 7.63833 3.24725 8.794 2.74825C9.94967 2.24942 11.1844 2 12.4983 2C13.8123 2 15.0473 2.24933 16.2035 2.748C17.3597 3.24667 18.3653 3.92342 19.2205 4.77825C20.0757 5.63308 20.7528 6.63833 21.2518 7.794C21.7506 8.94967 22 10.1844 22 11.4983C22 12.8123 21.7507 14.0473 21.252 15.2035C20.7533 16.3597 20.0766 17.3653 19.2218 18.2205C18.3669 19.0757 17.3617 19.7528 16.206 20.2518C15.0503 20.7506 13.8156 21 12.5017 21ZM13.25 19.4538C15.2718 19.2616 16.9856 18.4164 18.3913 16.9183C19.7971 15.4202 20.5 13.6142 20.5 11.5C20.5 9.38583 19.8003 7.58292 18.401 6.09125C17.0017 4.59958 15.2847 3.75125 13.25 3.54625V19.4538Z" fill="currentColor"/>
</svg>