<svg viewBox="0 0 24 24" fill="none" xmlns="http://www.w3.org/2000/svg">
<path d="M7.80775 20.8845C7.30908 20.8845 6.88308 20.7079 6.52975 20.3547C6.17658 20.0014 6 19.5754 6 19.0768V6.3845H5V4.8845H9.5V4H15.5V4.8845H20V6.3845H19V19.0768C19 19.5819 18.825 20.0095 18.475 20.3595C18.125 20.7095 17.6974 20.8845 17.1923 20.8845H7.80775ZM17.5 6.3845H7.5V19.0768C7.5 19.1666 7.52883 19.2403 7.5865 19.298C7.64417 19.3557 7.71792 19.3845 7.80775 19.3845H17.1923C17.2692 19.3845 17.3398 19.3524 17.4038 19.2883C17.4679 19.2243 17.5 19.1538 17.5 19.0768V6.3845ZM9.904 17.3845H11.4037V8.3845H9.904V17.3845ZM13.5962 17.3845H15.096V8.3845H13.5962V17.3845Z" fill="var(--color-content-emphasized)"/>
</svg>