<svg viewBox="0 0 24 24" fill="none" xmlns="http://www.w3.org/2000/svg">
<path d="M12.5 19C10.4062 19 8.63275 18.2736 7.17975 16.8207C5.72658 15.3679 5 13.5948 5 11.5015C5 9.40817 5.72658 7.63458 7.17975 6.18075C8.63275 4.72692 10.4062 4 12.5 4C13.6692 4 14.7756 4.25992 15.8193 4.77975C16.8628 5.29975 17.7307 6.03342 18.423 6.98075V4H19.923V10.1152H13.8077V8.6155H17.7578C17.2308 7.65 16.4999 6.88942 15.5653 6.33375C14.6308 5.77792 13.609 5.5 12.5 5.5C10.8333 5.5 9.41667 6.08333 8.25 7.25C7.08333 8.41667 6.5 9.83333 6.5 11.5C6.5 13.1667 7.08333 14.5833 8.25 15.75C9.41667 16.9167 10.8333 17.5 12.5 17.5C13.7833 17.5 14.9417 17.1333 15.975 16.4C17.0083 15.6667 17.7333 14.7 18.15 13.5H19.7308C19.2769 15.132 18.383 16.4567 17.049 17.474C15.715 18.4913 14.1987 19 12.5 19Z" fill="currentColor"/>
</svg>