<svg viewBox="0 0 24 24" fill="none" xmlns="http://www.w3.org/2000/svg">
<path d="M8.83242 16.6898C8.83242 16.7602 8.75156 16.8164 8.64961 16.8164C8.53359 16.827 8.45273 16.7707 8.45273 16.6898C8.45273 16.6195 8.53359 16.5633 8.63555 16.5633C8.74102 16.5527 8.83242 16.609 8.83242 16.6898ZM7.73906 16.5316C7.71445 16.602 7.78477 16.6828 7.89023 16.7039C7.98164 16.7391 8.08711 16.7039 8.1082 16.6336C8.1293 16.5633 8.0625 16.4824 7.95703 16.4508C7.86563 16.4262 7.76367 16.4613 7.73906 16.5316ZM9.29297 16.4719C9.19102 16.4965 9.1207 16.5633 9.13125 16.6441C9.1418 16.7145 9.2332 16.7602 9.33867 16.7355C9.44063 16.7109 9.51094 16.6441 9.50039 16.5738C9.48984 16.507 9.39492 16.4613 9.29297 16.4719ZM11.6063 3C6.73008 3 3 6.70195 3 11.5781C3 15.477 5.45391 18.8133 8.95898 19.9875C9.40898 20.0684 9.56719 19.7906 9.56719 19.5621C9.56719 19.3441 9.55664 18.1418 9.55664 17.4035C9.55664 17.4035 7.0957 17.9309 6.57891 16.3559C6.57891 16.3559 6.17812 15.3328 5.60156 15.0691C5.60156 15.0691 4.79648 14.5172 5.65781 14.5277C5.65781 14.5277 6.5332 14.598 7.01484 15.4348C7.78477 16.7918 9.075 16.4016 9.57773 16.1695C9.65859 15.607 9.88711 15.2168 10.1402 14.9848C8.175 14.7668 6.19219 14.482 6.19219 11.1C6.19219 10.1332 6.45938 9.64805 7.02188 9.0293C6.93047 8.80078 6.63164 7.85859 7.11328 6.64219C7.84805 6.41367 9.53906 7.59141 9.53906 7.59141C10.2422 7.39453 10.998 7.29258 11.7469 7.29258C12.4957 7.29258 13.2516 7.39453 13.9547 7.59141C13.9547 7.59141 15.6457 6.41016 16.3805 6.64219C16.8621 7.86211 16.5633 8.80078 16.4719 9.0293C17.0344 9.65156 17.3789 10.1367 17.3789 11.1C17.3789 14.4926 15.3082 14.7633 13.343 14.9848C13.6664 15.2625 13.9406 15.7898 13.9406 16.616C13.9406 17.8008 13.9301 19.2668 13.9301 19.5551C13.9301 19.7836 14.0918 20.0613 14.5383 19.9805C18.0539 18.8133 20.4375 15.477 20.4375 11.5781C20.4375 6.70195 16.4824 3 11.6063 3ZM6.41719 15.1254C6.37148 15.1605 6.38203 15.2414 6.4418 15.3082C6.49805 15.3645 6.57891 15.3891 6.62461 15.3434C6.67031 15.3082 6.65977 15.2273 6.6 15.1605C6.54375 15.1043 6.46289 15.0797 6.41719 15.1254ZM6.0375 14.8406C6.01289 14.8863 6.04805 14.9426 6.11836 14.9777C6.17461 15.0129 6.24492 15.0023 6.26953 14.9531C6.29414 14.9074 6.25898 14.8512 6.18867 14.816C6.11836 14.7949 6.06211 14.8055 6.0375 14.8406ZM7.17656 16.0922C7.12031 16.1379 7.14141 16.2434 7.22227 16.3102C7.30312 16.391 7.40508 16.4016 7.45078 16.3453C7.49648 16.2996 7.47539 16.1941 7.40508 16.1273C7.32773 16.0465 7.22227 16.0359 7.17656 16.0922ZM6.77578 15.5754C6.71953 15.6105 6.71953 15.702 6.77578 15.7828C6.83203 15.8637 6.92695 15.8988 6.97266 15.8637C7.02891 15.818 7.02891 15.7266 6.97266 15.6457C6.92344 15.5648 6.83203 15.5297 6.77578 15.5754Z" fill="var(--color-content-emphasized)"/>
</svg>